# xmcd CD database file
#
# Track frame offsets:
#	150
#	16318
#	35103
#	59045
#	75183
#	88563
#	107015
#	130287
#	148851
#	165493
#	179592
#
# Disc length: 2935 seconds
#
# Revision: 1
# Processed by: cddbd v1.5PL3 Copyright (c) Steve Scherf et al.
# Submitted via: CDex 1.51
#
DISCID=920b750b
DTITLE=Will Young - Friday's Child
DYEAR=2003
DGENRE=Pop
TTITLE0=Love the One You're With
TTITLE1=Your Game
TTITLE2=Stronger
TTITLE3=Leave Right Now
TTITLE4=Love Is A Matter Of Distance
TTITLE5=Dance The Night Away
TTITLE6=Very Kind
TTITLE7=Free
TTITLE8=Going My Way
TTITLE9=Out Of My Mind
TTITLE10=Friday's Child
EXTD=YEAR: 2003
EXTT0=
EXTT1=
EXTT2=
EXTT3=
EXTT4=
EXTT5=
EXTT6=
EXTT7=
EXTT8=
EXTT9=
EXTT10=
PLAYORDER=
